<svg width="20" height="20" viewBox="0 0 20 20" fill="none" xmlns="http://www.w3.org/2000/svg">
<path d="M5.85979 4.80496C5.85979 5.80181 4.99575 6.60992 3.9299 6.60992C2.86404 6.60992 2 5.80181 2 4.80496C2 3.80811 2.86404 3 3.9299 3C4.99575 3 5.85979 3.80811 5.85979 4.80496Z" fill="white"/>
<path d="M2.26392 7.93664H5.56289V17.9333H2.26392V7.93664Z" fill="white"/>
<path d="M10.8742 7.93664H7.57526V17.9333H10.8742C10.8742 17.9333 10.8742 14.7862 10.8742 12.8185C10.8742 11.6375 11.2775 10.4512 12.8866 10.4512C14.7051 10.4512 14.6941 11.9968 14.6857 13.1942C14.6746 14.7594 14.701 16.3566 14.701 17.9333H18V12.6573C17.9721 9.2884 17.0942 7.73609 14.2062 7.73609C12.4911 7.73609 11.428 8.51473 10.8742 9.21919V7.93664Z" fill="white"/>
</svg>
