<svg width="155" height="36" viewBox="0 0 155 36" fill="none" xmlns="http://www.w3.org/2000/svg">
<g clip-path="url(#clip0_101_75)">
<path d="M51.5821 8.28387H48V24.4472H57.9164V21.2801H51.5821V8.28387Z" fill="white"/>
<path d="M58.2585 18.9648C58.2585 22.4159 60.5738 24.7093 64.0685 24.7093C67.5414 24.7093 69.8567 22.4159 69.8567 18.9648C69.8567 15.5137 67.5414 13.1984 64.0685 13.1984C60.5738 13.1984 58.2585 15.5137 58.2585 18.9648ZM61.644 18.9429C61.644 17.3048 62.6051 16.2127 64.0685 16.2127C65.5101 16.2127 66.4712 17.3048 66.4712 18.9429C66.4712 20.603 65.5101 21.6951 64.0685 21.6951C62.6051 21.6951 61.644 20.603 61.644 18.9429Z" fill="white"/>
<path d="M70.3978 18.7901C70.3978 22.0882 72.5384 24.3161 75.5744 24.3161C77.0379 24.3161 78.3047 23.7919 78.9381 22.9401V24.4472C78.9381 25.9543 77.9989 26.959 76.3389 26.959C74.8536 26.959 73.827 26.2601 73.7615 25.0151H70.3541C70.6599 28.0075 72.9752 30.0169 76.1423 30.0169C79.8773 30.0169 82.2363 27.5925 82.2363 23.7482V13.5261H79.2002L79.0255 14.64C78.4139 13.7445 77.1252 13.1548 75.64 13.1548C72.582 13.1548 70.3978 15.4482 70.3978 18.7901ZM73.8052 18.7027C73.8052 17.13 74.8536 16.0816 76.186 16.0816C77.7368 16.0816 78.8726 17.1082 78.8726 18.7027C78.8726 20.2972 77.7586 21.3893 76.2078 21.3893C74.8755 21.3893 73.8052 20.2972 73.8052 18.7027Z" fill="white"/>
<path d="M83.2166 18.9648C83.2166 22.4159 85.5319 24.7093 89.0267 24.7093C92.4996 24.7093 94.8148 22.4159 94.8148 18.9648C94.8148 15.5137 92.4996 13.1984 89.0267 13.1984C85.5319 13.1984 83.2166 15.5137 83.2166 18.9648ZM86.6022 18.9429C86.6022 17.3048 87.5632 16.2127 89.0267 16.2127C90.4682 16.2127 91.4293 17.3048 91.4293 18.9429C91.4293 20.603 90.4682 21.6951 89.0267 21.6951C87.5632 21.6951 86.6022 20.603 86.6022 18.9429Z" fill="white"/>
<path d="M97.7149 11.8224C98.7633 11.8224 99.6152 10.9705 99.6152 9.9003C99.6152 8.83 98.7633 8 97.7149 8C96.6446 8 95.7928 8.83 95.7928 9.9003C95.7928 10.9705 96.6446 11.8224 97.7149 11.8224ZM96.0112 24.4472H99.3968V13.5261H96.0112V24.4472Z" fill="white"/>
<path d="M101.368 29.6893H104.688V23.3551C105.321 24.1851 106.763 24.753 108.27 24.753C111.524 24.753 113.49 22.263 113.403 18.8119C113.315 15.2953 111.284 13.1766 108.248 13.1766C106.697 13.1766 105.234 13.8537 104.622 14.8585L104.447 13.5261H101.368V29.6893ZM104.753 18.9866C104.753 17.3485 105.845 16.2564 107.418 16.2564C109.012 16.2564 110.017 17.3703 110.017 18.9866C110.017 20.603 109.012 21.7169 107.418 21.7169C105.845 21.7169 104.753 20.6248 104.753 18.9866Z" fill="white"/>
<path d="M113.761 20.9961C113.848 23.2022 115.596 24.7311 118.348 24.7311C120.991 24.7311 122.826 23.3332 122.826 21.0835C122.826 19.4672 121.865 18.3969 120.073 17.96L118.13 17.4795C117.431 17.3048 116.994 17.13 116.994 16.5621C116.994 15.9942 117.452 15.6229 118.13 15.6229C118.894 15.6229 119.396 16.1253 119.375 16.8679H122.411C122.323 14.5963 120.598 13.1766 118.195 13.1766C115.771 13.1766 113.958 14.6182 113.958 16.8024C113.958 18.2658 114.766 19.4672 116.928 20.0351L118.85 20.5374C119.418 20.6903 119.658 20.9524 119.658 21.3237C119.658 21.8698 119.156 22.2193 118.304 22.2193C117.321 22.2193 116.797 21.7606 116.797 20.9961H113.761Z" fill="white"/>
<path d="M127.974 24.7311C129.307 24.7311 130.639 24.1195 131.316 23.224L131.535 24.4472H134.702V13.5261H131.338V19.2051C131.338 20.8432 130.858 21.7387 129.307 21.7387C128.105 21.7387 127.319 21.1927 127.319 19.1614V13.5261H123.955V20.3845C123.955 22.9838 125.397 24.7311 127.974 24.7311Z" fill="white"/>
<path d="M140.036 24.4472V18.4843C140.036 16.6495 141.019 16.1253 141.98 16.1253C143.05 16.1253 143.749 16.7806 143.749 18.1348V24.4472H147.069V18.4843C147.069 16.6277 148.03 16.1035 148.991 16.1035C150.061 16.1035 150.782 16.7587 150.782 18.1348V24.4472H154.059V17.3048C154.059 14.8148 152.748 13.1548 149.93 13.1548C148.358 13.1548 147.069 13.9192 146.501 15.0987C145.846 13.9192 144.71 13.1548 142.897 13.1548C141.696 13.1548 140.582 13.7008 139.927 14.5745L139.796 13.5261H136.65V24.4472H140.036Z" fill="white"/>
<path d="M0 18C0 9.51471 0 5.27207 2.63604 2.63604C5.27207 0 9.51471 0 18 0C26.4853 0 30.7279 0 33.364 2.63604C36 5.27207 36 9.51471 36 18C36 26.4853 36 30.7279 33.364 33.364C30.7279 36 26.4853 36 18 36C9.51471 36 5.27207 36 2.63604 33.364C0 30.7279 0 26.4853 0 18Z" fill="#2DF8BB"/>
<path d="M21.6 23.4C22.0971 23.4 22.5091 23.8069 22.4104 24.2941C22.2359 25.1545 21.8119 25.952 21.182 26.582C20.3381 27.4259 19.1935 27.9 18 27.9C16.8065 27.9 15.662 27.4259 14.8181 26.582C14.1881 25.952 13.7641 25.1545 13.5897 24.2941C13.4909 23.8069 13.9029 23.4 14.4 23.4H21.6Z" fill="#243A5A"/>
<path d="M23.4921 15.9989C23.0119 16.1275 22.7179 16.6298 22.9613 17.0631C23.2176 17.5192 23.572 17.9173 24.0032 18.2263C24.6802 18.7114 25.5044 18.9468 26.3355 18.8923C27.1666 18.8378 27.9531 18.4969 28.561 17.9276C29.1689 17.3582 29.5605 16.5957 29.6692 15.7699C29.7779 14.9442 29.597 14.1063 29.1572 13.3989C28.7174 12.6917 28.0459 12.1588 27.2572 11.8911C26.4686 11.6233 25.6115 11.6374 24.832 11.9308C24.3356 12.1176 23.8902 12.4104 23.5247 12.7846C23.1773 13.1402 23.3313 13.7015 23.7618 13.95L24.2184 14.2136C24.9127 14.6146 24.7758 15.6549 24.0013 15.8624L23.4921 15.9989Z" fill="#243A5A"/>
<path d="M12.508 15.9989C12.9882 16.1275 13.2822 16.6298 13.0387 17.0631C12.7825 17.5192 12.4281 17.9173 11.997 18.2263C11.32 18.7114 10.4957 18.9468 9.66464 18.8923C8.83351 18.8378 8.04701 18.4969 7.43912 17.9276C6.83124 17.3582 6.43956 16.5957 6.33085 15.7699C6.22214 14.9442 6.40311 14.1063 6.84293 13.3989C7.28274 12.6917 7.95419 12.1588 8.74287 11.8911C9.53153 11.6233 10.3887 11.6374 11.1682 11.9308C11.6645 12.1176 12.1099 12.4104 12.4755 12.7846C12.8228 13.1402 12.6688 13.7015 12.2383 13.95L11.7817 14.2136C11.0874 14.6146 11.2243 15.6549 11.9988 15.8624L12.508 15.9989Z" fill="#243A5A"/>
</g>
<defs>
<clipPath id="clip0_101_75">
<rect width="155" height="36" fill="white"/>
</clipPath>
</defs>
</svg>
