<svg width="20" height="20" viewBox="0 0 20 20" fill="none" xmlns="http://www.w3.org/2000/svg">
<path fill-rule="evenodd" clip-rule="evenodd" d="M13.5727 3.69734C13.5614 3.76875 13.5556 3.84201 13.5556 3.91667C13.5556 4.67051 14.1525 5.28161 14.8889 5.28161C15.6253 5.28161 16.2222 4.67051 16.2222 3.91667C16.2222 3.16284 15.6253 2.55173 14.8889 2.55173C14.5608 2.55173 14.2603 2.67307 14.028 2.8743L10.5655 2L9.31405 7.12452C7.64924 7.23667 6.15198 7.7528 5.02249 8.532C4.7018 8.21004 4.26244 8.0115 3.77778 8.0115C2.79594 8.0115 2 8.8263 2 9.83142C2 10.5309 2.38547 11.1382 2.95082 11.4429C2.90997 11.6599 2.88889 11.8814 2.88889 12.1063C2.88889 14.8704 6.07264 17.1111 10 17.1111C13.9274 17.1111 17.1111 14.8704 17.1111 12.1063C17.1111 11.8814 17.09 11.6599 17.0492 11.4429C17.6145 11.1382 18 10.5309 18 9.83142C18 8.8263 17.2041 8.0115 16.2222 8.0115C15.7376 8.0115 15.2982 8.21004 14.9775 8.532C13.747 7.68309 12.0799 7.14642 10.2352 7.10422L11.2123 3.10349L13.5727 3.69734ZM6.88889 12.5613C7.62527 12.5613 8.22222 11.9502 8.22222 11.1964C8.22222 10.4425 7.62527 9.83142 6.88889 9.83142C6.15251 9.83142 5.55556 10.4425 5.55556 11.1964C5.55556 11.9502 6.15251 12.5613 6.88889 12.5613ZM13.1111 12.5613C13.8475 12.5613 14.4444 11.9502 14.4444 11.1964C14.4444 10.4425 13.8475 9.83142 13.1111 9.83142C12.3747 9.83142 11.7778 10.4425 11.7778 11.1964C11.7778 11.9502 12.3747 12.5613 13.1111 12.5613ZM7.13542 14.0027C6.93119 13.8633 6.65525 13.9198 6.51909 14.1288C6.38293 14.3379 6.43812 14.6204 6.64236 14.7598C7.60954 15.4199 8.80477 15.7499 10 15.7499C11.1952 15.7499 12.3905 15.4199 13.3576 14.7598C13.5619 14.6204 13.6171 14.3379 13.4809 14.1288C13.3448 13.9198 13.0688 13.8633 12.8646 14.0027C12.0467 14.5608 11.0233 14.8399 10 14.8399C9.39313 14.8399 8.78625 14.7418 8.22222 14.5455C7.83516 14.4108 7.46828 14.2298 7.13542 14.0027Z" fill="white"/>
</svg>
